<svg width="17" height="15" viewBox="0 0 17 15" fill="none" xmlns="http://www.w3.org/2000/svg">
<path fill-rule="evenodd" clip-rule="evenodd" d="M15.1667 0.833344H1.83335C0.916687 0.833344 0.17502 1.58334 0.17502 2.50001L0.166687 12.5C0.166687 13.4167 0.916687 14.1667 1.83335 14.1667H15.1667C16.0834 14.1667 16.8334 13.4167 16.8334 12.5V2.50001C16.8334 1.58334 16.0834 0.833344 15.1667 0.833344ZM14.8334 4.37501L8.94169 8.05834C8.67502 8.22501 8.32502 8.22501 8.05835 8.05834L2.16669 4.37501C1.95835 4.24168 1.83335 4.01668 1.83335 3.77501C1.83335 3.21668 2.44169 2.88334 2.91669 3.17501L8.50002 6.66668L14.0834 3.17501C14.5584 2.88334 15.1667 3.21668 15.1667 3.77501C15.1667 4.01668 15.0417 4.24168 14.8334 4.37501Z" fill="white"/>
</svg>
