<svg width="17" height="17" viewBox="0 0 17 17" fill="none" xmlns="http://www.w3.org/2000/svg">
<path fill-rule="evenodd" clip-rule="evenodd" d="M8.50002 0.166656C3.90002 0.166656 0.166687 3.89999 0.166687 8.49999C0.166687 13.1 3.90002 16.8333 8.50002 16.8333C13.1 16.8333 16.8334 13.1 16.8334 8.49999C16.8334 3.89999 13.1 0.166656 8.50002 0.166656ZM7.66669 15.1083C4.37502 14.7 1.83335 11.9 1.83335 8.49999C1.83335 7.98332 1.90002 7.49166 2.00835 7.00832L6.00002 11V11.8333C6.00002 12.75 6.75002 13.5 7.66669 13.5V15.1083ZM13.4167 12.9917C13.2 12.3167 12.5834 11.8333 11.8334 11.8333H11V9.33332C11 8.87499 10.625 8.49999 10.1667 8.49999H5.16669V6.83332H6.83335C7.29169 6.83332 7.66669 6.45832 7.66669 5.99999V4.33332H9.33335C10.25 4.33332 11 3.58332 11 2.66666V2.32499C13.4417 3.31666 15.1667 5.70832 15.1667 8.49999C15.1667 10.2333 14.5 11.8083 13.4167 12.9917Z" fill="white"/>
</svg>
